<svg width="144" height="29" viewBox="0 0 144 29" fill="none" xmlns="http://www.w3.org/2000/svg">
<path d="M44.9088 21.2903C47.3346 21.2903 49.6567 20.0048 50.6933 17.8279L48.2261 16.4387C47.5834 17.6413 46.4638 18.4084 44.7844 18.4084C42.4416 18.4084 40.783 16.5631 40.783 14.0337C40.783 11.5043 42.4624 9.65907 44.7844 9.65907C46.4638 9.65907 47.5419 10.4262 48.2261 11.6287L50.6933 10.2396C49.6567 8.06263 47.3346 6.77719 44.9088 6.77719C40.8452 6.77719 37.673 9.9908 37.673 14.0337C37.673 18.0767 40.8452 21.2903 44.9088 21.2903ZM51.9116 6.01007V21H54.8556V6.01007H51.9116ZM58.894 9.20295C59.8892 9.20295 60.6978 8.39436 60.6978 7.37845C60.6978 6.38326 59.8892 5.55395 58.894 5.55395C57.8989 5.55395 57.0695 6.38326 57.0695 7.37845C57.0695 8.39436 57.8989 9.20295 58.894 9.20295ZM57.422 10.7372V21H60.3661V10.7372H57.422ZM75.4551 10.364C73.6099 10.364 72.1586 11.2348 71.5159 12.6446C70.9146 11.2348 69.484 10.364 67.5144 10.364C64.1971 10.364 62.5178 12.769 62.5178 15.6302V21H65.4618V16.107C65.4618 14.552 66.1046 13.2251 67.7425 13.2251C69.3389 13.2251 70.0231 14.5313 70.0231 16.107V21H72.9672V16.0863C72.9672 14.5313 73.6514 13.2251 75.2478 13.2251C76.865 13.2251 77.5492 14.552 77.5492 16.1278V21H80.4932V15.6302C80.4932 12.769 78.7931 10.364 75.4551 10.364ZM86.8029 21.2695C88.2127 21.2695 89.3323 20.7097 90.0579 19.7975V21H92.8569V15.8375C92.8569 12.7483 90.4933 10.4262 87.2797 10.4262C84.1283 10.4262 81.7233 12.8934 81.7233 15.8375C81.7233 18.823 83.8173 21.2695 86.8029 21.2695ZM87.2797 18.512C85.7662 18.512 84.6674 17.3095 84.6674 15.8582C84.6674 14.4069 85.7662 13.2044 87.2797 13.2044C88.7932 13.2044 89.9128 14.4069 89.9128 15.8582C89.9128 17.3095 88.7932 18.512 87.2797 18.512ZM103.37 21V15.4436H109.735V21H112.762V7.04672H109.735V12.6654H103.37V7.04672H100.343V21H103.37ZM120.191 21.2695C123.342 21.2695 125.768 18.823 125.768 15.8375C125.768 12.8934 123.363 10.4262 120.191 10.4262C117.06 10.4262 114.634 12.8727 114.634 15.8375C114.634 18.823 117.039 21.2695 120.191 21.2695ZM120.191 18.512C118.677 18.512 117.579 17.3095 117.579 15.8582C117.579 14.4069 118.677 13.2044 120.191 13.2044C121.704 13.2044 122.824 14.4069 122.824 15.8582C122.824 17.3095 121.704 18.512 120.191 18.512ZM128.908 9.20295C129.903 9.20295 130.712 8.39436 130.712 7.37845C130.712 6.38326 129.903 5.55395 128.908 5.55395C127.913 5.55395 127.083 6.38326 127.083 7.37845C127.083 8.39436 127.913 9.20295 128.908 9.20295ZM127.415 10.7372V21.4354C127.415 22.4513 126.772 23.1562 125.446 23.1562L125.611 25.9344C128.701 25.9344 130.359 24.1307 130.359 21.5391V10.7372H127.415ZM137.206 21.2695C139.383 21.2695 141.083 20.2121 141.974 18.3669L139.715 17.2266C139.238 18.1803 138.305 18.7194 137.185 18.7194C135.713 18.7194 134.656 17.8071 134.448 16.4387H142.078V15.568C142.078 12.769 140.191 10.364 136.936 10.364C133.764 10.364 131.608 12.8105 131.608 15.7753C131.608 19.0511 134.013 21.2695 137.206 21.2695ZM134.573 14.8008C134.78 13.7642 135.63 12.9349 136.916 12.9349C138.16 12.9349 139.03 13.7435 139.155 14.8008H134.573Z" fill="url(#paint0_linear_73_13)"/>
<path d="M19.6964 6.1582L14.0776 11.746L17.4118 15.0802L19.6964 12.7957L26.1177 19.2479L29.4211 15.9138L19.6964 6.1582ZM9.75555 9.46152L0 19.2171L3.33418 22.5512L9.75555 16.1299L16.177 22.5512L19.5112 19.2171L9.75566 9.46152H9.75555Z" fill="url(#paint1_linear_73_13)"/>
<defs>
<linearGradient id="paint0_linear_73_13" x1="36.9474" y1="13.1" x2="143.938" y2="15.0354" gradientUnits="userSpaceOnUse">
<stop stop-color="#007DFE"/>
<stop offset="1" stop-color="#3AA2FF"/>
</linearGradient>
<linearGradient id="paint1_linear_73_13" x1="5.03147e-09" y1="13.5633" x2="29.4257" y2="13.8223" gradientUnits="userSpaceOnUse">
<stop stop-color="#007DFE"/>
<stop offset="1" stop-color="#3AA2FF"/>
</linearGradient>
</defs>
</svg>
