<svg width="60" height="58" viewBox="0 0 60 58" fill="none" xmlns="http://www.w3.org/2000/svg">
<g filter="url(#filter0_f_73_75)">
<rect x="11.6433" y="11.6431" width="36.2907" height="34.1737" rx="14.2138" fill="#FFEF9A"/>
</g>
<g filter="url(#filter1_i_73_75)">
<path d="M45.5147 31.4515C45.5147 40.1368 38.4739 47.1775 29.7887 47.1775C21.1035 47.1775 14.0627 40.1368 14.0627 31.4515C14.0627 22.7663 21.1035 15.7256 29.7887 15.7256C38.4739 15.7256 45.5147 22.7663 45.5147 31.4515Z" fill="url(#paint0_linear_73_75)"/>
</g>
<g filter="url(#filter3_i_73_75)">
<path d="M38.7594 39.5613C38.8687 38.9407 38.9257 38.3023 38.9257 37.6507C38.9257 31.5549 33.938 26.6133 27.7854 26.6133C23.2115 26.6133 19.2814 29.3443 17.5657 33.2503C16.1758 32.0614 14.3722 31.3436 12.4012 31.3436C8.00653 31.3436 4.44391 34.9125 4.44391 39.315C4.44391 39.5602 4.45496 39.8027 4.47658 40.0422C2.3628 41.068 0.907318 43.2205 0.907318 45.7097C0.907318 49.193 3.75742 52.0168 7.27319 52.0168H37.3342C40.85 52.0168 43.7001 49.193 43.7001 45.7097C43.7001 42.7118 41.589 40.2025 38.7594 39.5613Z" fill="url(#paint1_linear_73_75)"/>
</g>
<defs>
<filter id="filter0_f_73_75" x="5.24521e-05" y="-0.000191689" width="59.5772" height="57.4603" filterUnits="userSpaceOnUse" color-interpolation-filters="sRGB">
<feFlood flood-opacity="0" result="BackgroundImageFix"/>
<feBlend mode="normal" in="SourceGraphic" in2="BackgroundImageFix" result="shape"/>
<feGaussianBlur stdDeviation="5.82163" result="effect1_foregroundBlur_73_75"/>
</filter>
<filter id="filter1_i_73_75" x="14.0627" y="15.7256" width="31.4519" height="32.2082" filterUnits="userSpaceOnUse" color-interpolation-filters="sRGB">
<feFlood flood-opacity="0" result="BackgroundImageFix"/>
<feBlend mode="normal" in="SourceGraphic" in2="BackgroundImageFix" result="shape"/>
<feColorMatrix in="SourceAlpha" type="matrix" values="0 0 0 0 0 0 0 0 0 0 0 0 0 0 0 0 0 0 127 0" result="hardAlpha"/>
<feOffset dy="0.756056"/>
<feGaussianBlur stdDeviation="1.3609"/>
<feComposite in2="hardAlpha" operator="arithmetic" k2="-1" k3="1"/>
<feColorMatrix type="matrix" values="0 0 0 0 1 0 0 0 0 1 0 0 0 0 1 0 0 0 0.81 0"/>
<feBlend mode="normal" in2="shape" result="effect1_innerShadow_73_75"/>
</filter>
<filter id="filter3_i_73_75" x="0.907349" y="26.6133" width="42.7927" height="26.9154" filterUnits="userSpaceOnUse" color-interpolation-filters="sRGB">
<feFlood flood-opacity="0" result="BackgroundImageFix"/>
<feBlend mode="normal" in="SourceGraphic" in2="BackgroundImageFix" result="shape"/>
<feColorMatrix in="SourceAlpha" type="matrix" values="0 0 0 0 0 0 0 0 0 0 0 0 0 0 0 0 0 0 127 0" result="hardAlpha"/>
<feOffset dy="1.66332"/>
<feGaussianBlur stdDeviation="0.756056"/>
<feComposite in2="hardAlpha" operator="arithmetic" k2="-1" k3="1"/>
<feColorMatrix type="matrix" values="0 0 0 0 1 0 0 0 0 1 0 0 0 0 1 0 0 0 1 0"/>
<feBlend mode="normal" in2="shape" result="effect1_innerShadow_73_75"/>
</filter>
<linearGradient id="paint0_linear_73_75" x1="27.3999" y1="40.0112" x2="40.339" y2="17.3181" gradientUnits="userSpaceOnUse">
<stop stop-color="#FF9900"/>
<stop offset="1" stop-color="#FFEE94"/>
</linearGradient>
<linearGradient id="paint1_linear_73_75" x1="3.62912" y1="49.7486" x2="46.7999" y2="17.465" gradientUnits="userSpaceOnUse">
<stop stop-color="white"/>
<stop offset="1" stop-color="white" stop-opacity="0.58"/>
</linearGradient>
</defs>
</svg>
